<?xml version="1.0" encoding="UTF-8"?>
<svg id="Layer_1" xmlns="http://www.w3.org/2000/svg" version="1.1" viewBox="0 0 612 792">
  <!-- Generator: Adobe Illustrator 29.2.1, SVG Export Plug-In . SVG Version: 2.1.0 Build 116)  -->
  <defs>
    <style>
      .st0, .st1 {
        fill: #fff;
      }

      .st2 {
        fill: #00a891;
        stroke-width: 6px;
      }

      .st2, .st1 {
        stroke: #231f20;
        stroke-miterlimit: 10;
      }

      .st1 {
        stroke-width: .5px;
      }
    </style>
  </defs>
  <rect class="st2" x="92" y="182" width="428" height="428" rx="214" ry="214"/>
  <rect class="st1" x="286.4" y="310" width="52.3" height="165.9" rx="4.1" ry="4.1" transform="translate(705.5 80.5) rotate(90)"/>
  <path class="st2" d="M282,316"/>
  <path class="st0" d="M358,366.8c-7.7,78.3-15.3,156.6-23,234.9,0,2.3-1.8,4.1-4.1,4.1h-44c-2.3,0-4.1-1.8-4.1-4.1v-270.6c-2.2,6.2-7,22.9,0,40.9,2.4,6.2,6.7,17.2,18.3,23,8.7,4.3,17.1,3.6,21,3,17.1,8.4,24.1,7.9,27,5,11.2-10.9-31.6-56.1-16.9-81.5,11.2-19.4,54.3-20.8,61.9-8.5,3.1,5-1,10.3,3.2,15.7,5.5,7.1,20.6,8.3,28.8,2.3,12.9-9.5,10.3-38.2-2-56-12.3-17.9-32.6-22.3-45-25-5.8-1.3-45.7-9.4-75,11-54.6,38.1-37.3,151.1-8,160,11,3.3,29.4-6.3,62-54.2Z"/>
  <path class="st0" d="M728,355"/>
  <path class="st1" d="M561,393"/>
  <path class="st0" d="M404,565"/>
  <path class="st0" d="M638,458"/>
  <rect class="st0" x="288" y="398.3" width="24.5" height="42.7"/>
  <rect class="st0" x="282" y="333.4" width="20" height="13.6"/>
</svg>