<?xml version="1.0" encoding="UTF-8"?>
<svg id="Layer_1" xmlns="http://www.w3.org/2000/svg" version="1.1" viewBox="0 0 612 792">
  <!-- Generator: Adobe Illustrator 29.2.1, SVG Export Plug-In . SVG Version: 2.1.0 Build 116)  -->
  <defs>
    <style>
      .st0, .st1 {
        stroke-width: 6px;
      }

      .st0, .st1, .st2 {
        stroke: #231f20;
        stroke-miterlimit: 10;
      }

      .st0, .st2 {
        fill: #f7ef72;
      }

      .st1 {
        fill: #231f20;
      }

      .st2 {
        stroke-width: 17px;
      }
    </style>
  </defs>
  <rect class="st0" x="92" y="182" width="428" height="428" rx="45" ry="45"/>
  <rect class="st2" x="145.5" y="230.5" width="321" height="331" rx="57" ry="57"/>
  <path class="st2" d="M306,306.6h0c49.4,0,89.4,40,89.4,89.4h0c0,49.4-40,89.4-89.4,89.4h0c-49.4,0-89.4-40-89.4-89.4h0c0-49.4,40-89.4,89.4-89.4Z"/>
  <path class="st1" d="M414.9,267.7h0c10.7,0,19.5,8.7,19.5,19.4h0c0,10.7-8.7,19.4-19.5,19.4h0c-10.7,0-19.5-8.7-19.5-19.4h0c0-10.7,8.7-19.4,19.5-19.4Z"/>
</svg>